<svg xmlns="http://www.w3.org/2000/svg" viewBox="0 0 100 110" shape-rendering="crispEdges"><g stroke="#18110f" stroke-width="4"><path fill="#817044" d="M29 8h43v11h10v30H19V19h10z"/><path fill="#62513b" d="M13 47h75v39H13z"/><path fill="#88633f" d="M4 47h18v42H4zm75-4h18v46H79z"/><path fill="#34332c" d="M20 82h25v25H14V96h6zm38 0h25v25H52V96h6z"/><path fill="#9e3f31" d="M12 55h76v10H12z"/></g><rect x="36" y="25" width="8" height="7" fill="#ff5035"/><rect x="61" y="25" width="8" height="7" fill="#ff5035"/><rect x="43" y="39" width="23" height="7" fill="#281915"/><rect x="10" y="68" width="13" height="9" fill="#b43f32"/><rect x="79" y="58" width="14" height="11" fill="#b43f32"/></svg>